<?xml version="1.0" encoding="UTF-8" standalone="no"?>
<svg
   xmlns:dc="http://purl.org/dc/elements/1.1/"
   xmlns:cc="http://creativecommons.org/ns#"
   xmlns:rdf="http://www.w3.org/1999/02/22-rdf-syntax-ns#"
   xmlns:svg="http://www.w3.org/2000/svg"
   xmlns="http://www.w3.org/2000/svg"
   xmlns:sodipodi="http://sodipodi.sourceforge.net/DTD/sodipodi-0.dtd"
   xmlns:inkscape="http://www.inkscape.org/namespaces/inkscape"
   width="490pt"
   height="411.25pt"
   version="1.1"
   viewBox="0 0 490 411.25"
   id="svg4"
   sodipodi:docname="mail.svg"
   inkscape:version="1.0.1 (3bc2e813f5, 2020-09-07)">
  <metadata
     id="metadata10">
    <rdf:RDF>
      <cc:Work
         rdf:about="">
        <dc:format>image/svg+xml</dc:format>
        <dc:type
           rdf:resource="http://purl.org/dc/dcmitype/StillImage" />
        <dc:title></dc:title>
      </cc:Work>
    </rdf:RDF>
  </metadata>
  <defs
     id="defs8" />
  <sodipodi:namedview
     pagecolor="#ffffff"
     bordercolor="#666666"
     borderopacity="1"
     objecttolerance="10"
     gridtolerance="10"
     guidetolerance="10"
     inkscape:pageopacity="0"
     inkscape:pageshadow="2"
     inkscape:window-width="1920"
     inkscape:window-height="1017"
     id="namedview6"
     showgrid="false"
     fit-margin-top="0"
     fit-margin-left="0"
     fit-margin-right="0"
     fit-margin-bottom="0"
     inkscape:zoom="0.91071429"
     inkscape:cx="190.96485"
     inkscape:cy="402.94835"
     inkscape:window-x="1358"
     inkscape:window-y="-8"
     inkscape:window-maximized="1"
     inkscape:current-layer="svg4" />
  <path
     d="m 367.5,0 h -245 C 54.969,0 0,54.949 0,122.5 v 166.25 c 0,67.551 54.969,122.5 122.5,122.5 h 245 c 67.531,0 122.5,-54.949 122.5,-122.5 V 122.5 C 490,54.949 435.031,0 367.5,0 Z M 455,122.5 v 166.25 c 0,9.2031 -1.8203,17.902 -4.4609,26.25 l -100.7,-109.45 100.71,-109.27 c 2.6406,8.3281 4.4609,17.027 4.4609,26.215 z M 122.5,35 h 245 c 25.828,0 48.844,11.48 64.891,29.348 l -123.04,133.51 c -16.766,18.199 -39.621,28.211 -64.348,28.211 -24.727,0 -47.582,-10.012 -64.348,-28.211 L 57.615,64.348 C 73.646,46.481 96.658,35 122.506,35 Z M 35,288.75 V 122.5 c 0,-9.1875 1.8203,-17.887 4.4609,-26.215 l 100.71,109.27 -100.7,109.45 C 36.8303,306.6573 35.01,297.958 35.01,288.755 Z m 332.5,87.5 h -245 c -25.812,0 -48.824,-11.461 -64.855,-29.297 l 106.84,-116.11 c 22.172,19.32 50.836,30.223 80.516,30.223 29.68,0 58.328,-10.902 80.516,-30.223 l 106.84,116.11 c -16.031,17.852 -39.023,29.297 -64.855,29.297 z"
     id="path2"
     style="fill:#ffffff;fill-opacity:1" />
</svg>
