<?xml version="1.0" encoding="UTF-8"?>
<svg width="700pt" height="700pt" version="1.1" viewBox="0 0 700 700" xmlns="http://www.w3.org/2000/svg">
 <path d="m105 17.5c-19.086 0-35 15.914-35 35v455c0 19.086 15.914 35 35 35h490c19.086 0 35-15.914 35-35v-385c0-19.086-15.914-35-35-35h-245c-2.918 0-3.8398-0.4375-7.3477-4.6484-3.5117-4.2109-7.625-11.93-12-20.68s-9.0117-18.531-16.438-27.445c-7.4297-8.9141-19.633-17.227-34.215-17.227zm262.5 105h210c9.6953 0 17.5 7.8047 17.5 17.5v350c0 9.6953-7.8047 17.5-17.5 17.5h-456.74c-9.6953 0-17.5-7.8047-17.5-17.5v-280c0-9.6953 7.8047-17.5 17.5-17.5h159.24c87.5 0 35-70 87.5-70zm-87.363 105c-7.5859-0.070312-14.348 4.7656-16.75 11.965l-35 105c-2.2734 6.832-0.12891 14.355 5.4023 18.969l105 87.5c6.4922 5.4141 15.93 5.4141 22.422 0l105-87.5c5.5312-4.6133 7.6758-12.137 5.4023-18.969l-35-105c-4.9297-14.805-25.301-16.25-32.266-2.293l-30.148 60.328h-48.398l-30.148-60.328c-2.9414-5.8828-8.9375-9.6211-15.516-9.6719z" fill-rule="evenodd"/>
</svg>
