<?xml version="1.0" encoding="UTF-8" standalone="no"?>
<!-- Created with Inkscape (http://www.inkscape.org/) -->

<svg
   width="56.570999mm"
   height="10.503865mm"
   viewBox="0 0 56.570999 10.503865"
   version="1.1"
   id="svg1797"
   xmlns="http://www.w3.org/2000/svg"
   xmlns:svg="http://www.w3.org/2000/svg">
  <defs
     id="defs1794" />
  <g
     id="layer1"
     transform="translate(-72.392458,-104.23536)">
    <g
       id="g1419"
       transform="matrix(0.35277777,0,0,0.35277777,-15.317538,85.894613)">
      <g
         id="g612"
         transform="matrix(0.80843705,0,0,-0.80843705,269.85923,75.184698)"
         style="fill:#ffffff">
        <path
           d="m 0,0 c 0,-1.656 -1.344,-2.999 -2.999,-2.999 -1.656,0 -2.999,1.343 -2.999,2.999 0,1.656 1.343,2.996 2.999,2.996 C -1.344,2.996 0,1.656 0,0"
           style="fill:#ffffff;fill-opacity:1;fill-rule:nonzero;stroke:none"
           id="path614" />
      </g>
      <g
         id="g616"
         transform="matrix(0.80843705,0,0,-0.80843705,283.75109,68.953265)"
         style="fill:#ffffff">
        <path
           d="m 0,0 c 0,-1.656 -1.345,-2.999 -2.999,-2.999 -1.656,0 -2.998,1.343 -2.998,2.999 0,1.654 1.342,2.997 2.998,2.997 C -1.345,2.997 0,1.654 0,0"
           style="fill:#ffffff;fill-opacity:1;fill-rule:nonzero;stroke:none"
           id="path618" />
      </g>
      <g
         id="g620"
         transform="matrix(0.80843705,0,0,-0.80843705,269.37999,66.876471)"
         style="fill:#ffffff">
        <path
           d="m 0,0 c 0,-1.655 -1.343,-2.996 -2.999,-2.996 -1.657,0 -2.999,1.341 -2.999,2.996 0,1.655 1.342,2.996 2.999,2.996 C -1.343,2.996 0,1.655 0,0"
           style="fill:#ffffff;fill-opacity:1;fill-rule:nonzero;stroke:none"
           id="path622" />
      </g>
      <g
         id="g624"
         transform="matrix(0.80843705,0,0,-0.80843705,276.45624,62.722964)">
        <path
           d="m 0,0 c 0,-1.656 -1.344,-2.997 -2.999,-2.997 -1.658,0 -2.999,1.341 -2.999,2.997 0,1.656 1.341,2.998 2.999,2.998 C -1.344,2.998 0,1.656 0,0"
           style="fill:#7b7979;fill-opacity:1;fill-rule:nonzero;stroke:none"
           id="path626" />
      </g>
      <g
         id="g628"
         transform="matrix(0.80843705,0,0,-0.80843705,266.3819,58.567921)">
        <path
           d="m 0,0 c 0,-1.657 -1.344,-2.998 -2.999,-2.998 -1.657,0 -2.999,1.341 -2.999,2.998 0,1.655 1.342,2.999 2.999,2.999 C -1.344,2.999 0,1.655 0,0"
           style="fill:#7b7979;fill-opacity:1;fill-rule:nonzero;stroke:none"
           id="path630" />
      </g>
      <g
         id="g632"
         transform="matrix(0.80843705,0,0,-0.80843705,274.49707,56.490723)"
         style="fill:#ffffff">
        <path
           d="m 0,0 c 0,-1.655 -1.342,-2.998 -2.999,-2.998 -1.656,0 -2.999,1.343 -2.999,2.998 0,1.656 1.343,2.997 2.999,2.997 C -1.342,2.997 0,1.656 0,0"
           style="fill:#ffffff;fill-opacity:1;fill-rule:nonzero;stroke:none"
           id="path634" />
      </g>
      <g
         id="g636"
         transform="matrix(0.80843705,0,0,-0.80843705,278.78761,79.339741)">
        <path
           d="m 0,0 c 0,-1.656 -1.342,-2.999 -2.999,-2.999 -1.656,0 -2.998,1.343 -2.998,2.999 0,1.656 1.342,2.999 2.998,2.999 C -1.342,2.999 0,1.656 0,0"
           style="fill:#7b7979;fill-opacity:1;fill-rule:nonzero;stroke:none"
           id="path638" />
      </g>
      <g
         id="g640"
         transform="matrix(0.80843705,0,0,-0.80843705,284.05975,60.645443)">
        <path
           d="m 0,0 c 0,-1.654 -1.344,-2.997 -3,-2.997 -1.656,0 -2.998,1.343 -2.998,2.997 0,1.656 1.342,2.998 2.998,2.998 1.656,0 3,-1.342 3,-2.998"
           style="fill:#7b7979;fill-opacity:1;fill-rule:nonzero;stroke:none"
           id="path642" />
      </g>
      <g
         id="g644"
         transform="matrix(0.80843705,0,0,-0.80843705,262.9492,71.755146)">
        <path
           d="m 0,0 c 0,-1.656 -1.343,-2.998 -3,-2.998 -1.656,0 -2.998,1.342 -2.998,2.998 0,1.654 1.342,2.998 2.998,2.998 1.657,0 3,-1.344 3,-2.998"
           style="fill:#7b7979;fill-opacity:1;fill-rule:nonzero;stroke:none"
           id="path646" />
      </g>
      <g
         id="g648"
         transform="matrix(0.80843705,0,0,-0.80843705,253.47577,71.755146)">
        <path
           d="m 0,0 c 0,-1.656 -1.343,-2.998 -2.999,-2.998 -1.656,0 -2.999,1.342 -2.999,2.998 0,1.654 1.343,2.998 2.999,2.998 C -1.343,2.998 0,1.654 0,0"
           style="fill:#7b7979;fill-opacity:1;fill-rule:nonzero;stroke:none"
           id="path650" />
      </g>
      <g
         id="g652"
         transform="matrix(0.80843705,0,0,-0.80843705,259.91562,64.798545)"
         style="fill:#ffffff">
        <path
           d="m 0,0 c 0,-1.658 -1.343,-2.999 -3,-2.999 -1.656,0 -2.999,1.341 -2.999,2.999 0,1.655 1.343,2.997 2.999,2.997 1.657,0 3,-1.342 3,-2.997"
           style="fill:#ffffff;fill-opacity:1;fill-rule:nonzero;stroke:none"
           id="path654" />
      </g>
      <g
         id="g656"
         transform="matrix(0.80843705,0,0,-0.80843705,259.87576,54.413201)">
        <path
           d="m 0,0 c 0,-1.656 -1.343,-2.999 -2.999,-2.999 -1.656,0 -2.999,1.343 -2.999,2.999 0,1.655 1.343,2.998 2.999,2.998 C -1.343,2.998 0,1.655 0,0"
           style="fill:#7b7979;fill-opacity:1;fill-rule:nonzero;stroke:none"
           id="path658" />
      </g>
      <g
         id="g660"
         transform="matrix(0.80843705,0,0,-0.80843705,276.6362,71.031191)">
        <path
           d="m 0,0 c 0,-1.655 -1.342,-2.998 -2.999,-2.998 -1.656,0 -2.998,1.343 -2.998,2.998 0,1.656 1.342,2.999 2.998,2.999 C -1.342,2.999 0,1.656 0,0"
           style="fill:#7b7979;fill-opacity:1;fill-rule:nonzero;stroke:none"
           id="path662" />
      </g>
      <g
         id="g664"
         transform="matrix(0.80843705,0,0,-0.80843705,258.59794,78.614977)"
         style="fill:#ffffff">
        <path
           d="m 0,0 c 0,-1.655 -1.342,-2.998 -2.999,-2.998 -1.656,0 -2.998,1.343 -2.998,2.998 0,1.655 1.342,2.996 2.998,2.996 C -1.342,2.996 0,1.655 0,0"
           style="fill:#ffffff;fill-opacity:1;fill-rule:nonzero;stroke:none"
           id="path666" />
      </g>
      <g
         id="g668"
         transform="matrix(0.80843705,0,0,-0.80843705,328.79858,56.047861)">
        <path
           d="m 0,0 c 0,-2.072 -1.681,-3.748 -3.75,-3.748 -2.074,0 -3.752,1.676 -3.752,3.748 0,2.069 1.678,3.745 3.752,3.745 C -1.681,3.745 0,2.069 0,0"
           style="fill:#7b7979;fill-opacity:1;fill-rule:nonzero;stroke:none"
           id="path670" />
      </g>
      <g
         id="g672"
         transform="matrix(0.80843705,0,0,-0.80843705,313.54329,65.408026)"
         style="fill:#ffffff">
        <path
           d="m 0,0 v 3.596 c 0,1.9 -0.052,2.85 -4.62,2.85 H -21.066 V -2.663 H -3.741 C 0.241,-2.663 0,-1.775 0,0 m 4.874,0.047 c 0,-2.569 -1.272,-4.445 -3.82,-5.629 -2.02,-0.872 -2.116,-1.308 -4.75,-1.308 h -8.037 l 14.804,-7.356 c 0.864,-0.405 1.297,-1.004 1.297,-1.798 0,-1.168 -0.959,-1.752 -2.877,-1.752 -0.762,0 -1.362,0.062 -1.801,0.187 l -20.756,10.112 v -8.43 c 0,-1.231 -0.572,-1.846 -1.714,-1.846 -1.215,0 -1.918,0.055 -2.108,0.164 -0.702,0.233 -1.053,0.794 -1.053,1.682 V 8.851 c 0,1.214 0.57,1.822 1.712,1.822 h 19.631 c 3.046,0 3.317,-0.421 5.279,-1.261 C 3.478,8.213 4.874,6.235 4.874,3.479 Z"
           style="fill:#ffffff;fill-opacity:1;fill-rule:nonzero;stroke:none"
           id="path674" />
      </g>
      <g
         id="g676"
         transform="matrix(0.80843705,0,0,-0.80843705,327.60799,79.348472)"
         style="fill:#ffffff">
        <path
           d="m 0,0 c 0,-0.917 -0.565,-1.377 -1.699,-1.377 -0.494,0 -0.916,0.01 -1.264,0.026 -0.349,0.018 -0.625,0.038 -0.828,0.061 -0.697,0.174 -1.047,0.604 -1.047,1.29 v 19.979 c 0,0.685 0.342,1.109 1.024,1.272 0.16,0.023 0.415,0.043 0.763,0.062 0.349,0.017 0.799,0.025 1.352,0.025 1.134,0 1.699,-0.453 1.699,-1.359 z"
           style="fill:#ffffff;fill-opacity:1;fill-rule:nonzero;stroke:none"
           id="path678" />
      </g>
      <g
         id="g680"
         transform="matrix(0.80843705,0,0,-0.80843705,351.67322,71.472517)"
         style="fill:#ffffff">
        <path
           d="M 0,0 -6.85,10.446 -13.743,0 Z m 10.955,-8.849 c 0,-0.645 -0.211,-1.184 -0.629,-1.618 -0.42,-0.435 -0.941,-0.652 -1.566,-0.652 -0.867,0 -1.572,0.42 -2.114,1.261 l -4.005,6.011 h -19.028 l -4.005,-6.011 c -0.432,-0.659 -0.901,-0.988 -1.402,-0.988 -0.502,0 -0.981,0.168 -1.442,0.504 -0.515,0.364 -0.774,0.791 -0.774,1.283 0,0.153 0.042,0.294 0.123,0.42 l 14.272,22.553 c 0.584,0.925 1.586,1.387 3.009,1.387 1.057,0 1.76,-0.308 2.114,-0.924 0.025,-0.043 0.056,-0.102 0.092,-0.18 0.031,-0.076 0.082,-0.171 0.152,-0.283 L 10.873,-8.219 c 0.055,-0.097 0.082,-0.308 0.082,-0.63"
           style="fill:#ffffff;fill-opacity:1;fill-rule:nonzero;stroke:none"
           id="path682" />
      </g>
      <g
         id="g684"
         transform="matrix(0.80843705,0,0,-0.80843705,382.33538,61.442804)"
         style="fill:#ffffff">
        <path
           d="m 0,0 c 0,-1.11 -0.545,-1.666 -1.637,-1.666 h -11.847 v -20.193 c 0,-1.111 -0.541,-1.666 -1.623,-1.666 -1.1,0 -1.782,0.042 -2.049,0.127 -0.66,0.196 -0.992,0.709 -0.992,1.539 V -1.666 H -29.91 c -1.108,0 -1.66,0.556 -1.66,1.666 0,0.758 0.086,2.024 0.254,2.306 0.222,0.393 0.693,0.589 1.406,0.589 H -1.637 C -0.545,2.895 0,1.433 0,0"
           style="fill:#ffffff;fill-opacity:1;fill-rule:nonzero;stroke:none"
           id="path686" />
      </g>
      <g
         id="g688"
         transform="matrix(0.80843705,0,0,-0.80843705,398.84205,62.222865)"
         style="fill:#ffffff">
        <path
           d="M 0,0 H 0.473 L 0.785,0.014 H 1.162 1.5 1.879 2.254 2.563 2.844 3.229 L 3.773,-0.047 4.246,-0.131 4.57,-0.184 4.939,-0.26 5.287,-0.344 5.699,-0.458 6.172,-0.619 6.592,-0.809 6.902,-0.992 7.191,-1.182 7.41,-1.38 7.588,-1.601 7.729,-1.791 7.832,-2.02 7.92,-2.248 7.965,-2.598 7.973,-3.056 7.98,-3.292 v -1.104 l -0.007,-1.47 v -1.618 h 0.15 -19.824 v 4.62 c 0,1.908 2.555,2.864 7.67,2.864 0.168,0 0.377,0.006 0.629,0 0.254,-0.008 0.552,0.014 0.904,0 0.012,-0.015 0.096,0 0.252,0 h 0.23 0.422 M 10.803,-18.591 H -5.67 c -3.992,0 -5.99,0.933 -5.99,2.799 v 4.338 h 22.463 c 1.109,0 1.693,0.648 1.744,1.929 v -0.006 1.113 2.681 2.925 0.564 0.228 l -0.051,0.328 -0.06,0.251 -0.067,0.259 -0.074,0.236 -0.141,0.343 -0.146,0.305 -0.184,0.327 -0.207,0.305 -0.236,0.335 -0.303,0.343 -0.369,0.381 -0.346,0.29 L 10.031,1.934 9.514,2.276 9.16,2.497 8.17,2.97 7.08,3.343 6.332,3.533 5.035,3.777 H 4.156 3.221 2.748 2.424 1.766 1.117 0.445 -0.299 -0.883 -1.398 -1.375 L -5.482,3.86 c -4.608,0 -7.809,-1.098 -9.602,-3.297 -0.826,-1.026 -1.24,-2.168 -1.24,-3.427 v -13.102 c 0,-2.329 1.248,-4.078 3.74,-5.249 2.031,-0.897 4.266,-1.346 6.703,-1.346 h 16.684 c 1.092,0 1.638,0.752 1.638,2.257 0,1.142 -0.546,1.713 -1.638,1.713"
           style="fill:#ffffff;fill-opacity:1;fill-rule:nonzero;stroke:none"
           id="path690" />
      </g>
    </g>
  </g>
</svg>
