<?xml version="1.0" encoding="UTF-8" standalone="no"?>
<svg
   xmlns:dc="http://purl.org/dc/elements/1.1/"
   xmlns:cc="http://creativecommons.org/ns#"
   xmlns:rdf="http://www.w3.org/1999/02/22-rdf-syntax-ns#"
   xmlns:svg="http://www.w3.org/2000/svg"
   xmlns="http://www.w3.org/2000/svg"
   width="489.99789pt"
   height="490.00055pt"
   version="1.1"
   viewBox="0 0 489.99789 490.00055"
   id="svg4">
  <metadata
     id="metadata10">
    <rdf:RDF>
      <cc:Work
         rdf:about="">
        <dc:format>image/svg+xml</dc:format>
        <dc:type
           rdf:resource="http://purl.org/dc/dcmitype/StillImage" />
        <dc:title></dc:title>
      </cc:Work>
    </rdf:RDF>
  </metadata>
  <defs
     id="defs8" />
  <path
     d="m 245,5.6e-4 c -135.1,0 -245,109.9 -245,245 0,135.1 109.9,245 245,245 25.551,0 50.191,-3.9531 73.359,-11.254 0.21094,-0.0703 0.42188,-0.15625 0.62891,-0.22656 99.031,-31.449 171.01,-124.21 171.01,-233.52 0,-135.1 -109.9,-245 -245,-245 z m 188.53,153.11 c -27.613,-5.3555 -56.141,-9.4336 -85.121,-12.391 -2.957,-28.281 -6.9297,-56.559 -12.129,-84.523 42.281,20.527 76.598,54.723 97.246,96.934 z M 35,245.00156 c 0,-18.234 2.5742,-35.84 6.9648,-52.727 31.605,-6.5273 63.699,-11.621 95.898,-15.172 -2.8711,45.324 -2.6406,91.105 0.68359,136.69 -33.109,-3.6211 -65.434,-8.8906 -96.496,-15.734 -4.4453,-16.977 -7.0508,-34.703 -7.0508,-53.059 z m 138.86,71.855 c -3.7617,-47.723 -3.9883,-95.672 -0.71875,-143.01 47.723,-3.7617 95.656,-3.9883 143.01,-0.71875 3.7617,47.723 3.9883,95.672 0.71875,143.01 -47.723,3.7617 -95.656,3.9883 -143.01,0.71875 z m 177.59,-140.65 c 33.109,3.6211 65.434,8.8906 96.496,15.734 4.4453,16.977 7.0508,34.703 7.0508,53.059 0,18.234 -2.5742,35.84 -6.9648,52.727 -31.605,6.5273 -63.699,11.621 -95.898,15.172 2.8711,-45.324 2.6406,-91.105 -0.68359,-136.69 z m -53.727,-134.24 c 6.5273,31.605 11.621,63.699 15.172,95.898 -45.324,-2.8711 -91.105,-2.6406 -136.69,0.68359 3.6211,-33.109 8.8906,-65.434 15.734,-96.496 16.977,-4.4453 34.703,-7.0508 53.059,-7.0508 18.234,0 35.84,2.5742 52.727,6.9648 z m -144.62,14.488 c -5.3555,27.613 -9.4336,56.141 -12.391,85.121 -28.281,2.957 -56.559,6.9297 -84.523,12.129 20.527,-42.281 54.723,-76.598 96.934,-97.246 z m -96.637,280.44 c 27.613,5.3555 56.141,9.4336 85.121,12.391 2.957,28.281 6.9297,56.559 12.129,84.523 -42.281,-20.527 -76.598,-54.723 -97.246,-96.934 z m 135.8,111.12 c -6.5273,-31.586 -11.621,-63.684 -15.172,-95.883 21.016,1.3281 42.105,2.2227 63.246,2.2227 24.484,0 49,-1.1719 73.449,-2.9414 -3.6211,33.129 -8.8906,65.449 -15.734,96.531 -16.977,4.4453 -34.703,7.0508 -53.059,7.0508 -18.234,0 -35.84,-2.5742 -52.727,-6.9648 z m 144.62,-14.488 c 5.3555,-27.613 9.4336,-56.141 12.391,-85.121 28.281,-2.957 56.559,-6.9297 84.523,-12.129 -20.527,42.281 -54.723,76.598 -96.934,97.246 z"
     id="path2"
     style="fill:#ffffff;fill-opacity:1" />
</svg>
